# File created by Blade
# Date/Time:  Tue Sep 30 19:15:05 2014
# Frame Rate: 120.000 fps
#------------------------------------------------------
:FULLY-SPECIFIED
:DEGREES
3852
root -2.285495 34.420131 -3.426393 45.483167 -4.427248 -37.610094
Spine -19.007809 16.396163 13.927010
Head -43.445860 -56.030759 58.644624
LeftShoulder 16.204620 7.181676 31.651492
LeftArm -44.770628 -26.731740 -60.772593
LeftForeArm -148.278948 -0.912437 1.475760
LeftHand -0.000027 40.184402 12.169268
LeftHandThumb1 30.357831 13.997178 22.438692
RightShoulder -17.795057 -20.912311 -11.185545
RightArm 56.020035 9.009147 93.407919
RightForeArm 87.830189 -22.017513 0.813775
RightHand 0.000018 -3.198227 23.693020
RightHandThumb1 30.482666 -12.916435 -20.793814
LeftUpLeg -42.026111 15.346143 28.409740
LeftLeg 15.232600 -0.000000 0.000000
LeftFoot -15.144362 21.541558 -1.379410
LeftToeBase 4.598700 -0.000000 -0.000000
RightUpLeg -5.375291 -0.767251 -29.230177
RightLeg 73.285599 -0.000000 -0.000000
RightFoot 34.493197 -8.038676 -6.751477
RightToeBase 19.524700 0.000000 0.000000
3853
root -2.285595 34.410331 -3.441193 45.351247 -4.532852 -37.462416
Spine -18.871640 16.184203 13.867513
Head -43.243667 -55.941375 58.377879
LeftShoulder 15.952023 7.103721 31.571840
LeftArm -44.749832 -26.638514 -60.663457
LeftForeArm -148.253656 -0.827326 1.336845
LeftHand -0.000015 40.570216 11.856499
LeftHandThumb1 30.357831 13.997178 22.438692
RightShoulder -17.758181 -20.971608 -11.202632
RightArm 55.916066 8.968001 93.441130
RightForeArm 87.800434 -22.078487 0.827114
RightHand -0.000023 -3.218559 23.627872
RightHandThumb1 30.482666 -12.916435 -20.793814
LeftUpLeg -41.991030 15.315972 28.209593
LeftLeg 15.305100 -0.000000 -0.000000
LeftFoot -15.156144 21.459460 -1.363994
LeftToeBase 4.658900 0.000000 0.000000
RightUpLeg -6.122919 -0.879183 -29.239287
RightLeg 76.185303 -0.000000 -0.000000
RightFoot 34.385468 -8.849000 -6.674139
RightToeBase 18.700001 -0.000000 -0.000000
3854
root -2.282795 34.401630 -3.456193 45.226702 -4.628119 -37.297564
Spine -18.738137 15.964655 13.821298
Head -43.056754 -55.889876 58.085363
LeftShoulder 15.838104 7.098099 31.502353
LeftArm -44.609048 -26.670802 -60.641512
LeftForeArm -148.180489 -0.705388 1.136633
LeftHand -0.000051 40.798952 11.716163
LeftHandThumb1 30.357831 13.997178 22.438692
RightShoulder -17.768016 -20.949985 -11.239962
RightArm 55.830155 8.881583 93.415048
RightForeArm 87.807664 -22.022713 0.822414
RightHand -0.000019 -3.249764 23.477087
RightHandThumb1 30.482666 -12.916435 -20.793814
LeftUpLeg -41.984556 15.277264 28.015789
LeftLeg 15.379900 -0.000000 0.000000
LeftFoot -15.172928 21.352814 -1.480749
LeftToeBase 4.561800 -0.000000 0.000000
RightUpLeg -6.855277 -0.992709 -29.256879
RightLeg 79.040398 -0.000000 -0.000000
RightFoot 34.389052 -9.307195 -6.703545
RightToeBase 18.310400 -0.000000 -0.000000
3855
root -2.284195 34.392631 -3.468293 45.076030 -4.716419 -37.143726
Spine -18.587880 15.780994 13.759561
Head -42.929665 -55.871319 57.895795
LeftShoulder 15.696543 7.078633 31.492345
LeftArm -44.306263 -26.665700 -60.712779
LeftForeArm -148.092805 -0.520707 0.836245
LeftHand -0.000048 40.909064 11.678002
LeftHandThumb1 30.357831 13.997178 22.438692
RightShoulder -17.722777 -21.015177 -11.269216
RightArm 55.671395 8.802282 93.463533
RightForeArm 87.758700 -22.096912 0.843489
RightHand 0.000012 -3.149988 23.590610
RightHandThumb1 30.482666 -12.916435 -20.793814
LeftUpLeg -41.953583 15.238764 27.817491
LeftLeg 15.469400 0.000000 0.000000
LeftFoot -15.190600 21.297637 -1.526313
LeftToeBase 4.488900 0.000000 0.000000
RightUpLeg -7.501998 -1.073608 -29.266615
RightLeg 81.785599 -0.000000 0.000000
RightFoot 34.338627 -9.836224 -6.549672
RightToeBase 18.588301 -0.000000 0.000000
3856
root -2.287095 34.381431 -3.477793 44.879336 -4.790897 -36.920602
Spine -18.450237 15.564744 13.612388
Head -42.763507 -55.839949 57.747403
LeftShoulder 15.858901 7.095916 31.630046
LeftArm -43.759729 -26.994821 -61.114865
LeftForeArm -147.919738 -0.178028 0.284016
LeftHand 0.000023 40.697205 11.853079
LeftHandThumb1 30.357831 13.997178 22.438692
RightShoulder -17.626508 -21.117078 -11.267989
RightArm 55.590100 8.794156 93.465749
RightForeArm 87.701140 -21.711541 0.850821
RightHand 0.000027 -3.073571 23.839792
RightHandThumb1 30.482666 -12.916435 -20.793814
LeftUpLeg -41.871742 15.089356 27.632415
LeftLeg 15.508000 0.000000 0.000000
LeftFoot -15.184924 21.209705 -1.536699
LeftToeBase 4.470400 -0.000000 -0.000000
RightUpLeg -8.036341 -1.206311 -29.331036
RightLeg 84.434196 -0.000000 -0.000000
RightFoot 34.363064 -10.251139 -6.463138
RightToeBase 18.567900 -0.000000 -0.000000
3857
root -2.290995 34.374031 -3.488393 44.683535 -4.839557 -36.741049
Spine -18.258378 15.353992 13.552464
Head -42.708677 -55.760612 57.654904
LeftShoulder 15.902396 7.136421 31.684139
LeftArm -43.312500 -27.192054 -61.394372
LeftForeArm -147.799829 0.041778 -0.066341
LeftHand -0.000093 40.570891 12.061614
LeftHandThumb1 30.357831 13.997178 22.438692
RightShoulder -17.577670 -21.162330 -11.271378
RightArm 55.483982 8.774932 93.434722
RightForeArm 87.689064 -21.705577 0.855070
RightHand -0.000033 -3.046310 23.895282
RightHandThumb1 30.482666 -12.916435 -20.793814
LeftUpLeg -41.801500 14.967158 27.479356
LeftLeg 15.551800 0.000000 0.000000
LeftFoot -15.123777 21.170558 -1.516994
LeftToeBase 4.406000 -0.000000 0.000000
RightUpLeg -8.545255 -1.323570 -29.353292
RightLeg 86.980400 0.000000 0.000000
RightFoot 34.478784 -10.369013 -6.470078
RightToeBase 18.597099 0.000000 0.000000
3858
root -2.297095 34.363132 -3.493193 44.488368 -4.850373 -36.529212
Spine -18.160846 15.145577 13.473620
Head -42.515525 -55.798143 57.433835
LeftShoulder 15.782823 6.975286 31.698811
LeftArm -43.110787 -27.083245 -61.487551
LeftForeArm -147.762969 0.184726 -0.292917
LeftHand 0.000084 40.652263 11.813873
LeftHandThumb1 30.357831 13.997178 22.438692
RightShoulder -17.517412 -21.152741 -11.324840
RightArm 55.291125 8.652173 93.382224
RightForeArm 87.738633 -21.709356 0.836851
RightHand 0.000022 -3.050228 24.013589
RightHandThumb1 30.482666 -12.916435 -20.793814
LeftUpLeg -41.751371 14.822205 27.309898
LeftLeg 15.604300 -0.000000 -0.000000
LeftFoot -15.106541 21.109426 -1.501357
LeftToeBase 4.339200 -0.000000 -0.000000
RightUpLeg -8.942430 -1.464934 -29.385255
RightLeg 89.370201 -0.000000 -0.000000
RightFoot 34.494080 -10.450332 -6.372022
RightToeBase 18.794701 -0.000000 -0.000000
3859
root -2.306195 34.352131 -3.495693 44.282304 -4.865528 -36.344182
Spine -18.045132 14.925073 13.424990
Head -42.305617 -55.877457 57.190423
LeftShoulder 15.731876 6.919406 31.718795
LeftArm -42.795564 -27.057124 -61.592898
LeftForeArm -147.705680 0.328210 -0.519274
LeftHand -0.000067 40.716900 11.924432
LeftHandThumb1 30.357831 13.997178 22.438692
RightShoulder -17.468243 -21.158246 -11.362328
RightArm 55.189074 8.575111 93.349955
RightForeArm 87.756836 -21.688014 0.829332
RightHand 0.000021 -3.036498 24.145836
RightHandThumb1 30.482666 -12.916435 -20.793814
LeftUpLeg -41.676008 14.702549 27.138989
LeftLeg 15.653300 -0.000000 -0.000000
LeftFoot -15.212406 21.029898 -1.610962
LeftToeBase 4.530900 0.000000 0.000000
RightUpLeg -9.312597 -1.579334 -29.408979
RightLeg 91.640602 -0.000000 0.000000
RightFoot 34.646151 -10.498440 -6.261772
RightToeBase 18.820801 0.000000 0.000000
3860
root -2.314695 34.341030 -3.501093 44.088066 -4.870272 -36.139920
Spine -17.907868 14.703301 13.370818
Head -42.274941 -55.728963 57.103775
LeftShoulder 15.766673 6.974516 31.690209
LeftArm -42.499047 -27.197180 -61.611002
LeftForeArm -147.600886 0.495980 -0.781508
LeftHand -0.000014 40.675125 11.861174
LeftHandThumb1 30.357831 13.997178 22.438692
RightShoulder -17.536820 -21.265899 -11.376544
RightArm 55.222245 8.457984 93.306627
RightForeArm 87.771540 -21.676518 0.823476
RightHand -0.000027 -3.068311 23.849589
RightHandThumb1 30.482666 -12.916435 -20.793814
LeftUpLeg -41.634569 14.590414 26.959342
LeftLeg 15.712900 -0.000000 0.000000
LeftFoot -15.210577 20.925258 -1.626847
LeftToeBase 4.499200 -0.000000 -0.000000
RightUpLeg -9.635460 -1.695155 -29.451924
RightLeg 93.775101 -0.000000 -0.000000
RightFoot 34.760122 -10.471916 -6.099788
RightToeBase 19.082800 -0.000000 -0.000000
3861
root -2.319795 34.330433 -3.503293 43.928886 -4.884627 -35.926862
Spine -17.844976 14.476582 13.292374
Head -42.150045 -55.728772 56.956541
LeftShoulder 15.674395 6.969783 31.668298
LeftArm -42.210054 -27.097681 -61.645431
LeftForeArm -147.577561 0.600873 -0.945901
LeftHand 0.000017 40.712013 11.847154
LeftHandThumb1 30.357831 13.997178 22.438692
RightShoulder -17.503206 -21.304029 -11.401215
RightArm 55.214755 8.403475 93.278688
RightForeArm 87.806345 -21.560340 0.806467
RightHand -0.000015 -3.072500 24.116648
RightHandThumb1 30.482666 -12.916435 -20.793814
LeftUpLeg -41.611708 14.491495 26.748333
LeftLeg 15.755700 -0.000000 -0.000000
LeftFoot -15.198742 20.835306 -1.561762
LeftToeBase 4.487400 -0.000000 -0.000000
RightUpLeg -9.939538 -1.887168 -29.531612
RightLeg 95.779999 0.000000 0.000000
RightFoot 34.798687 -10.405653 -6.075554
RightToeBase 19.171101 -0.000000 -0.000000
3862
root -2.322095 34.323532 -3.505393 43.814926 -4.885557 -35.777578
Spine -17.827876 14.297344 13.305941
Head -41.981831 -55.709552 56.721853
LeftShoulder 15.555919 6.953258 31.617076
LeftArm -41.906147 -26.905621 -61.692379
LeftForeArm -147.593213 0.667036 -1.050663
LeftHand -0.000077 40.791343 11.863352
LeftHandThumb1 30.357831 13.997178 22.438692
RightShoulder -17.524285 -21.259628 -11.433495
RightArm 55.167029 8.260196 93.151818
RightForeArm 87.930289 -21.518038 0.759444
RightHand 0.000005 -2.978577 24.256776
RightHandThumb1 30.482666 -12.916435 -20.793814
LeftUpLeg -41.596082 14.434366 26.594233
LeftLeg 15.752000 -0.000000 -0.000000
LeftFoot -15.146227 20.766040 -1.451948
LeftToeBase 4.473900 -0.000000 -0.000000
RightUpLeg -10.287583 -2.043749 -29.561516
RightLeg 97.641502 -0.000000 -0.000000
RightFoot 34.910967 -10.357517 -5.954477
RightToeBase 19.251900 0.000000 0.000000
3863
root -2.323495 34.315430 -3.506793 43.702327 -4.895975 -35.629540
Spine -17.805890 14.142598 13.295195
Head -41.917981 -55.636103 56.601052
LeftShoulder 15.675068 7.024820 31.561320
LeftArm -41.634481 -27.017010 -61.669966
LeftForeArm -147.563223 0.725320 -1.141120
LeftHand -0.000061 40.737004 11.825671
LeftHandThumb1 30.357831 13.997178 22.438692
RightShoulder -17.395705 -21.296467 -11.478729
RightArm 55.202865 8.322785 93.088197
RightForeArm 87.974376 -21.424718 0.740184
RightHand 0.000039 -3.024598 24.267559
RightHandThumb1 30.482666 -12.916435 -20.793814
LeftUpLeg -41.581980 14.391853 26.398227
LeftLeg 15.771200 -0.000000 -0.000000
LeftFoot -15.140457 20.725473 -1.391597
LeftToeBase 4.489500 0.000000 0.000000
RightUpLeg -10.577632 -2.178430 -29.609011
RightLeg 99.293404 -0.000000 -0.000000
RightFoot 35.035367 -10.096027 -6.107567
RightToeBase 19.348200 -0.000000 0.000000
3864
root -2.324095 34.307831 -3.509293 43.608879 -4.901687 -35.512261
Spine -17.798157 14.049865 13.327647
Head -41.914969 -55.646935 56.483111
LeftShoulder 15.675012 7.039622 31.499193
LeftArm -41.367908 -26.975361 -61.711931
LeftForeArm -147.547205 0.773202 -1.215675
LeftHand -0.000076 40.644015 11.705399
LeftHandThumb1 30.357831 13.997178 22.438692
RightShoulder -17.386779 -21.337806 -11.560570
RightArm 55.221124 8.244563 93.008841
RightForeArm 88.033992 -21.345261 0.715845
RightHand -0.000034 -2.992954 24.229820
RightHandThumb1 30.482666 -12.916435 -20.793814
LeftUpLeg -41.563100 14.336022 26.277173
LeftLeg 15.777800 -0.000000 0.000000
LeftFoot -15.098648 20.644149 -1.220558
LeftToeBase 4.515600 -0.000000 -0.000000
RightUpLeg -10.875336 -2.290094 -29.635837
RightLeg 100.836304 0.000000 0.000000
RightFoot 35.152002 -10.039878 -6.009323
RightToeBase 19.263700 -0.000000 -0.000000
